<?xml version="1.0" encoding="UTF-8" standalone="no"?>
<svg
   xmlns:dc="http://purl.org/dc/elements/1.1/"
   xmlns:cc="http://creativecommons.org/ns#"
   xmlns:rdf="http://www.w3.org/1999/02/22-rdf-syntax-ns#"
   xmlns:svg="http://www.w3.org/2000/svg"
   xmlns="http://www.w3.org/2000/svg"
   xmlns:xlink="http://www.w3.org/1999/xlink"
   xmlns:sodipodi="http://sodipodi.sourceforge.net/DTD/sodipodi-0.dtd"
   xmlns:inkscape="http://www.inkscape.org/namespaces/inkscape"
   viewBox="-30 -55 250 250"
   version="1.1"
   id="svg249"
   sodipodi:docname="binaergewitter_logo.svg"
   width="230"
   height="170"
   inkscape:version="0.92.3 (unknown)">
  <metadata
     id="metadata253">
    <rdf:RDF>
      <cc:Work
         rdf:about="">
        <dc:format>image/svg+xml</dc:format>
        <dc:type
           rdf:resource="http://purl.org/dc/dcmitype/StillImage" />
        <dc:title>BinärgewitterLogo_Aufkleber</dc:title>
      </cc:Work>
    </rdf:RDF>
  </metadata>
  <sodipodi:namedview
     pagecolor="#ffffff"
     bordercolor="#666666"
     borderopacity="1"
     objecttolerance="10"
     gridtolerance="10"
     guidetolerance="10"
     inkscape:pageopacity="0"
     inkscape:pageshadow="2"
     inkscape:window-width="1920"
     inkscape:window-height="1015"
     id="namedview251"
     showgrid="false"
     fit-margin-top="0"
     fit-margin-left="0"
     fit-margin-right="0"
     fit-margin-bottom="0"
     inkscape:zoom="1.6111111"
     inkscape:cx="-38.606338"
     inkscape:cy="57.798111"
     inkscape:window-x="3860"
     inkscape:window-y="36"
     inkscape:window-maximized="1"
     inkscape:current-layer="svg249" />
  <defs
     id="defs172">
    <style
       id="style2">.cls-1{fill:url(#linear-gradient);}.cls-2{fill:#1b1c20;}.cls-3{fill:url(#linear-gradient-2);}.cls-4{fill:#98989c;}.cls-5{fill:url(#linear-gradient-3);}.cls-6{fill:url(#linear-gradient-4);}.cls-7{fill:url(#linear-gradient-5);}.cls-8{fill:url(#linear-gradient-6);}.cls-9{fill:url(#linear-gradient-7);}.cls-10{fill:url(#linear-gradient-8);}.cls-11{fill:url(#linear-gradient-9);}.cls-12{fill:url(#linear-gradient-10);}.cls-13,.cls-31,.cls-32{isolation:isolate;}.cls-14,.cls-32{fill:gray;}.cls-15{fill:#e6e6e6;}.cls-16{fill:#fff;}.cls-17{mask:url(#mask);}.cls-18{fill:#97be11;}.cls-19{fill:#999;}.cls-20{mask:url(#mask-2);}.cls-21{mask:url(#mask-3);}.cls-22{fill:url(#linear-gradient-11);}.cls-23{mask:url(#mask-4);}.cls-24{mix-blend-mode:hard-light;}.cls-25{mask:url(#mask-5);}.cls-26{mask:url(#mask-6);}.cls-27{mask:url(#mask-7);}.cls-28{mask:url(#mask-8);}.cls-29{mask:url(#mask-9);}.cls-30{mask:url(#mask-10);}.cls-31{font-size:79.71px;fill:#010101;}.cls-31,.cls-32{font-family:Helvetica, Helvetica;}.cls-32{font-size:39.93px;}.cls-33{filter:url(#luminosity-noclip-3);}.cls-34{filter:url(#luminosity-noclip-2);}.cls-35{filter:url(#luminosity-noclip);}</style>
    <linearGradient
       id="linear-gradient"
       x1="436.63"
       y1="646.78003"
       x2="443.34"
       y2="750.97998"
       gradientTransform="matrix(-0.99,0.17,-0.27,-1.29,906.79,1025.37)"
       gradientUnits="userSpaceOnUse">
      <stop
         offset="0.01"
         stop-color="#1b1c20"
         id="stop4" />
      <stop
         offset="1"
         stop-color="#fff"
         id="stop6" />
    </linearGradient>
    <linearGradient
       id="linear-gradient-2"
       x1="130.50999"
       y1="172.78999"
       x2="136.19"
       y2="261.04001"
       gradientTransform="translate(-11.02,-16.97)"
       gradientUnits="userSpaceOnUse">
      <stop
         offset="0.01"
         stop-color="#98989c"
         id="stop9" />
      <stop
         offset="1"
         stop-color="#fff"
         id="stop11" />
    </linearGradient>
    <linearGradient
       id="linear-gradient-3"
       x1="240.19"
       y1="164"
       x2="250.77"
       y2="328.42999"
       gradientTransform="matrix(0.87,-0.4,0.28,0.73,-100.85,137.89)"
       xlink:href="#linear-gradient" />
    <linearGradient
       id="linear-gradient-4"
       x1="283.84"
       y1="173.37"
       x2="242.75"
       y2="102.2"
       gradientUnits="userSpaceOnUse">
      <stop
         offset="0"
         stop-color="#fff"
         id="stop15" />
      <stop
         offset="0.1"
         stop-color="#cfcfcf"
         id="stop17" />
      <stop
         offset="0.23"
         stop-color="#999"
         id="stop19" />
      <stop
         offset="0.37"
         stop-color="#6a6a6a"
         id="stop21" />
      <stop
         offset="0.5"
         stop-color="#444"
         id="stop23" />
      <stop
         offset="0.63"
         stop-color="#262626"
         id="stop25" />
      <stop
         offset="0.76"
         stop-color="#111"
         id="stop27" />
      <stop
         offset="0.88"
         stop-color="#040404"
         id="stop29" />
      <stop
         offset="1"
         id="stop31" />
    </linearGradient>
    <linearGradient
       id="linear-gradient-5"
       x1="234.5"
       y1="170.83"
       x2="165.50999"
       y2="112.94"
       gradientUnits="userSpaceOnUse">
      <stop
         offset="0"
         stop-color="#fff"
         id="stop34" />
      <stop
         offset="0.11"
         stop-color="#d7d7d7"
         id="stop36" />
      <stop
         offset="0.29"
         stop-color="#969696"
         id="stop38" />
      <stop
         offset="0.47"
         stop-color="#616161"
         id="stop40" />
      <stop
         offset="0.64"
         stop-color="#373737"
         id="stop42" />
      <stop
         offset="0.78"
         stop-color="#191919"
         id="stop44" />
      <stop
         offset="0.91"
         stop-color="#070707"
         id="stop46" />
      <stop
         offset="1"
         id="stop48" />
    </linearGradient>
    <linearGradient
       id="linear-gradient-6"
       x1="274.06"
       y1="67.150002"
       x2="205.06"
       y2="125.04"
       gradientUnits="userSpaceOnUse">
      <stop
         offset="0"
         stop-color="#fff"
         id="stop51" />
      <stop
         offset="0.17"
         stop-color="#bebebe"
         id="stop53" />
      <stop
         offset="0.33"
         stop-color="#848484"
         id="stop55" />
      <stop
         offset="0.49"
         stop-color="#555"
         id="stop57" />
      <stop
         offset="0.64"
         stop-color="#303030"
         id="stop59" />
      <stop
         offset="0.78"
         stop-color="#161616"
         id="stop61" />
      <stop
         offset="0.9"
         stop-color="#060606"
         id="stop63" />
      <stop
         offset="1"
         id="stop65" />
    </linearGradient>
    <linearGradient
       id="linear-gradient-7"
       x1="182.89999"
       y1="32.700001"
       x2="182.89999"
       y2="130.82001"
       xlink:href="#linear-gradient-4" />
    <linearGradient
       id="linear-gradient-8"
       x1="139.97"
       y1="187.25999"
       x2="155.96001"
       y2="96.559998"
       gradientUnits="userSpaceOnUse">
      <stop
         offset="0"
         stop-color="#fff"
         id="stop69" />
      <stop
         offset="0.03"
         stop-color="#eee"
         id="stop71" />
      <stop
         offset="0.14"
         stop-color="#b7b7b7"
         id="stop73" />
      <stop
         offset="0.26"
         stop-color="#868686"
         id="stop75" />
      <stop
         offset="0.37"
         stop-color="#5d5d5d"
         id="stop77" />
      <stop
         offset="0.49"
         stop-color="#3b3b3b"
         id="stop79" />
      <stop
         offset="0.61"
         stop-color="#212121"
         id="stop81" />
      <stop
         offset="0.73"
         stop-color="#0f0f0f"
         id="stop83" />
      <stop
         offset="0.86"
         stop-color="#040404"
         id="stop85" />
      <stop
         offset="1"
         id="stop87" />
    </linearGradient>
    <linearGradient
       id="linear-gradient-9"
       x1="62.119999"
       y1="156.71001"
       x2="135.21001"
       y2="114.51"
       gradientUnits="userSpaceOnUse">
      <stop
         offset="0"
         stop-color="#fff"
         id="stop90" />
      <stop
         offset="0.05"
         stop-color="#ebebeb"
         id="stop92" />
      <stop
         offset="0.2"
         stop-color="#aeaeae"
         id="stop94" />
      <stop
         offset="0.35"
         stop-color="#797979"
         id="stop96" />
      <stop
         offset="0.5"
         stop-color="#4d4d4d"
         id="stop98" />
      <stop
         offset="0.64"
         stop-color="#2c2c2c"
         id="stop100" />
      <stop
         offset="0.77"
         stop-color="#141414"
         id="stop102" />
      <stop
         offset="0.9"
         stop-color="#050505"
         id="stop104" />
      <stop
         offset="1"
         id="stop106" />
    </linearGradient>
    <linearGradient
       id="linear-gradient-10"
       x1="109.95"
       y1="51.279999"
       x2="153.98"
       y2="127.53"
       xlink:href="#linear-gradient-8" />
    <filter
       id="luminosity-noclip"
       x="209.2"
       y="117.94"
       width="154.22"
       height="179.23"
       filterUnits="userSpaceOnUse"
       style="color-interpolation-filters:sRGB">
      <feFlood
         flood-color="#fff"
         result="bg"
         id="feFlood110" />
      <feBlend
         in="SourceGraphic"
         in2="bg"
         id="feBlend112"
         mode="normal" />
    </filter>
    <mask
       id="mask"
       x="209.2"
       y="117.94"
       width="154.22"
       height="179.23"
       maskUnits="userSpaceOnUse">
      <g
         class="cls-35"
         id="g119"
         style="filter:url(#luminosity-noclip)">
        <polygon
           class="cls-1"
           points="332.19,127.2 358.28,251.59 235.28,272.68 209.2,148.28 "
           id="polygon115"
           style="fill:url(#linear-gradient)" />
        <rect
           class="cls-2"
           x="237.3"
           y="257.57999"
           width="124.59"
           height="28.030001"
           transform="rotate(-10.93,299.52854,271.57689)"
           id="rect117"
           style="fill:#1b1c20" />
      </g>
    </mask>
    <filter
       id="luminosity-noclip-2"
       x="48.599998"
       y="119.89"
       width="138.21001"
       height="138.23"
       filterUnits="userSpaceOnUse"
       style="color-interpolation-filters:sRGB">
      <feFlood
         flood-color="#fff"
         result="bg"
         id="feFlood122" />
      <feBlend
         in="SourceGraphic"
         in2="bg"
         id="feBlend124"
         mode="normal" />
    </filter>
    <mask
       id="mask-2"
       x="48.6"
       y="119.89"
       width="138.21"
       height="138.23"
       maskUnits="userSpaceOnUse">
      <g
         class="cls-34"
         id="g131"
         style="filter:url(#luminosity-noclip-2)">
        <rect
           class="cls-3"
           x="69.550003"
           y="159.03"
           width="105.53"
           height="81.830002"
           transform="rotate(-22.82,122.31497,199.9649)"
           id="rect127"
           style="fill:url(#linear-gradient-2)" />
        <rect
           class="cls-4"
           x="49.080002"
           y="139.42"
           width="105.53"
           height="23.74"
           transform="rotate(-22.82,101.83944,151.30362)"
           id="rect129"
           style="fill:#98989c" />
      </g>
    </mask>
    <filter
       id="luminosity-noclip-3"
       x="59.009998"
       y="84.370003"
       width="231.5"
       height="229.86"
       filterUnits="userSpaceOnUse"
       style="color-interpolation-filters:sRGB">
      <feFlood
         flood-color="#fff"
         result="bg"
         id="feFlood134" />
      <feBlend
         in="SourceGraphic"
         in2="bg"
         id="feBlend136"
         mode="normal" />
    </filter>
    <mask
       id="mask-3"
       x="59.01"
       y="84.37"
       width="231.5"
       height="229.86"
       maskUnits="userSpaceOnUse">
      <g
         class="cls-33"
         id="g143"
         style="filter:url(#luminosity-noclip-3)">
        <polygon
           class="cls-5"
           points="118.55,314.23 75.66,202.74 247.61,123.32 290.5,234.8 "
           id="polygon139"
           style="fill:url(#linear-gradient-3)" />
        <polygon
           class="cls-2"
           points="59.01,162.11 75.66,202.74 248.47,125 231.81,84.37 "
           id="polygon141"
           style="fill:#1b1c20" />
      </g>
    </mask>
    <linearGradient
       id="linear-gradient-11"
       x1="182.82001"
       y1="114.91"
       x2="182.82001"
       y2="292.45001"
       gradientUnits="userSpaceOnUse">
      <stop
         offset="0"
         stop-color="#97be11"
         id="stop146" />
      <stop
         offset="1"
         stop-color="#97be11"
         id="stop148" />
    </linearGradient>
    <mask
       id="mask-4"
       x="225.45"
       y="96.82"
       width="75.65"
       height="81.95"
       maskUnits="userSpaceOnUse">
      <path
         class="cls-6"
         d="m 263.31,178.76 q -11.74,0 -20.25,-5.22 a 33.84,33.84 0 0 1 -13.06,-15 49.79,49.79 0 0 1 0,-41.54 33.48,33.48 0 0 1 13.09,-15 q 8.58,-5.22 20.25,-5.22 a 38.23,38.23 0 0 1 20.08,5.22 33.35,33.35 0 0 1 13.12,15 50,50 0 0 1 0.2,41.24 34.18,34.18 0 0 1 -12.86,15.14 q -8.5,5.38 -20.57,5.38 z m 0,-9.76 a 13.72,13.72 0 0 0 12.93,-7.75 q 4.15,-7.75 4.15,-24.52 0,-15.08 -4.25,-22.62 a 14.71,14.71 0 0 0 -25.79,0.19 q -4.19,7.72 -4.19,24.49 0,15.08 4.29,22.65 a 13.89,13.89 0 0 0 12.86,7.56 z"
         id="path151"
         inkscape:connector-curvature="0"
         style="fill:url(#linear-gradient-4)" />
    </mask>
    <mask
       id="mask-5"
       x="157.6"
       y="95.98"
       width="84.81"
       height="91.87"
       maskUnits="userSpaceOnUse">
      <path
         class="cls-7"
         d="m 200,187.84 q -13.16,0 -22.7,-5.85 a 37.92,37.92 0 0 1 -14.6,-16.79 55.83,55.83 0 0 1 0,-46.55 37.54,37.54 0 0 1 14.68,-16.82 Q 186.95,96 200,96 q 12.94,0 22.55,5.79 a 37.4,37.4 0 0 1 14.71,16.76 56,56 0 0 1 0.22,46.23 38.31,38.31 0 0 1 -14.42,17 q -9.49,6.06 -23.06,6.06 z m 0,-10.94 a 15.39,15.39 0 0 0 14.49,-8.69 q 4.66,-8.69 4.66,-27.49 0,-16.91 -4.77,-25.36 a 16.49,16.49 0 0 0 -28.91,0.21 q -4.7,8.66 -4.69,27.46 0,16.91 4.81,25.39 4.81,8.48 14.41,8.49 z"
         id="path154"
         inkscape:connector-curvature="0"
         style="fill:url(#linear-gradient-5)" />
    </mask>
    <mask
       id="mask-6"
       x="197.14"
       y="50.19"
       width="84.81"
       height="91.87"
       maskUnits="userSpaceOnUse">
      <path
         class="cls-8"
         d="m 239.58,142.06 q -13.16,0 -22.7,-5.85 a 37.92,37.92 0 0 1 -14.64,-16.79 55.83,55.83 0 0 1 0,-46.55 A 37.55,37.55 0 0 1 216.88,56 q 9.61,-5.85 22.7,-5.85 13.09,0 22.55,5.85 a 37.42,37.42 0 0 1 14.71,16.76 56,56 0 0 1 0.22,46.23 38.33,38.33 0 0 1 -14.42,17 q -9.52,6.06 -23.06,6.07 z m 0,-10.94 a 15.38,15.38 0 0 0 14.49,-8.69 q 4.66,-8.69 4.66,-27.49 0,-16.91 -4.77,-25.36 a 16.49,16.49 0 0 0 -28.91,0.21 q -4.7,8.66 -4.7,27.46 0,16.91 4.81,25.39 4.81,8.48 14.42,8.48 z"
         id="path157"
         inkscape:connector-curvature="0"
         style="fill:url(#linear-gradient-6)" />
    </mask>
    <mask
       id="mask-7"
       x="137.61"
       y="32.7"
       width="90.58"
       height="98.11"
       maskUnits="userSpaceOnUse">
      <path
         class="cls-9"
         d="m 182.94,130.82 q -14.06,0 -24.24,-6.25 a 40.51,40.51 0 0 1 -15.63,-17.93 59.62,59.62 0 0 1 0,-49.72 A 40.08,40.08 0 0 1 158.7,39 q 10.3,-6.29 24.24,-6.3 13.82,0 24.09,6.19 a 39.94,39.94 0 0 1 15.71,17.9 59.83,59.83 0 0 1 0.24,49.37 40.91,40.91 0 0 1 -15.4,18.12 q -10.19,6.54 -24.64,6.54 z m 0,-11.68 q 10.5,0 15.48,-9.28 4.98,-9.28 5,-29.36 0,-18.06 -5.09,-27.08 -5.09,-9.02 -15.36,-9 -10.5,0 -15.52,9.25 -5.02,9.25 -5,29.33 0,18.06 5.13,27.12 5.13,9.06 15.36,9.02 z"
         id="path160"
         inkscape:connector-curvature="0"
         style="fill:url(#linear-gradient-7)" />
    </mask>
    <mask
       id="mask-8"
       x="105.56"
       y="95.98"
       width="84.81"
       height="91.87"
       maskUnits="userSpaceOnUse">
      <path
         class="cls-10"
         d="m 148,187.84 q -13.16,0 -22.7,-5.85 a 37.92,37.92 0 0 1 -14.64,-16.79 55.83,55.83 0 0 1 0,-46.55 37.54,37.54 0 0 1 14.68,-16.82 Q 134.92,96 148,96 q 12.94,0 22.55,5.79 a 37.4,37.4 0 0 1 14.71,16.76 56,56 0 0 1 0.22,46.23 38.31,38.31 0 0 1 -14.42,17 q -9.52,6.06 -23.06,6.06 z m 0,-10.94 a 15.38,15.38 0 0 0 14.49,-8.69 q 4.66,-8.69 4.66,-27.49 0,-16.91 -4.77,-25.36 a 16.49,16.49 0 0 0 -28.91,0.21 q -4.69,8.66 -4.69,27.46 0,16.91 4.81,25.39 4.81,8.48 14.41,8.49 z"
         id="path163"
         inkscape:connector-curvature="0"
         style="fill:url(#linear-gradient-8)" />
    </mask>
    <mask
       id="mask-9"
       x="58.11"
       y="91.71"
       width="81.06"
       height="87.81"
       maskUnits="userSpaceOnUse">
      <path
         class="cls-11"
         d="m 98.68,179.52 q -12.58,0 -21.7,-5.59 a 36.25,36.25 0 0 1 -14,-16 53.37,53.37 0 0 1 0,-44.5 A 35.88,35.88 0 0 1 77,97.3 q 9.19,-5.59 21.7,-5.59 12.51,0 21.56,5.54 a 35.76,35.76 0 0 1 14.06,16 53.55,53.55 0 0 1 0.21,44.19 36.61,36.61 0 0 1 -13.78,16.22 q -9.14,5.86 -22.07,5.86 z m 0,-10.45 a 14.7,14.7 0 0 0 13.85,-8.31 q 4.45,-8.31 4.45,-26.28 0,-16.16 -4.56,-24.24 a 14.82,14.82 0 0 0 -13.75,-8.08 14.78,14.78 0 0 0 -13.89,8.28 q -4.49,8.28 -4.49,26.25 0,16.16 4.59,24.27 4.59,8.11 13.8,8.1 z"
         id="path166"
         inkscape:connector-curvature="0"
         style="fill:url(#linear-gradient-9)" />
    </mask>
    <mask
       id="mask-10"
       x="91.41"
       y="45.5"
       width="81.06"
       height="87.81"
       maskUnits="userSpaceOnUse">
      <path
         class="cls-12"
         d="m 132,133.31 q -12.58,0 -21.7,-5.59 a 36.24,36.24 0 0 1 -14,-16 53.35,53.35 0 0 1 0,-44.5 35.88,35.88 0 0 1 14,-16.08 q 9.19,-5.59 21.7,-5.59 12.51,0 21.53,5.45 a 35.77,35.77 0 0 1 14.06,16 53.56,53.56 0 0 1 0.21,44.19 36.61,36.61 0 0 1 -13.8,16.27 q -9.09,5.85 -22,5.85 z m 0,-10.46 a 14.7,14.7 0 0 0 13.85,-8.31 q 4.45,-8.31 4.45,-26.27 0,-16.16 -4.56,-24.24 a 15.76,15.76 0 0 0 -27.63,0.2 q -4.49,8.28 -4.49,26.25 0,16.16 4.59,24.27 a 14.88,14.88 0 0 0 13.79,8.11 z"
         id="path169"
         inkscape:connector-curvature="0"
         style="fill:url(#linear-gradient-10)" />
    </mask>
  </defs>
  <title
     id="title174">BinärgewitterLogo_Aufkleber</title>
  <path
     class="cls-14"
     d="m 72.074866,99.024229 c -7.794521,0 -14.670648,-1.789679 -20.408597,-5.32194 -5.714405,3.532261 -12.559129,5.32194 -20.408582,5.32194 -7.849468,0 -14.702053,-1.797529 -20.487111,-5.345488 A 33.375938,33.375938 0 0 1 6.139388,90.248523 39.804653,39.804653 0 0 1 -7.4558933,92.477772 c -7.5040917,0 -14.1290427,-1.734732 -19.7021657,-5.141401 a 33.587874,33.587874 0 0 1 -12.935923,-14.772707 46.986916,46.986916 0 0 1 0,-39.247405 33.297444,33.297444 0 0 1 12.951622,-14.819827 33.846906,33.846906 0 0 1 8.948394,-3.775594 46.233367,46.233367 0 0 1 4.230864,-17.6534539 33.297444,33.297444 0 0 1 12.99087173,-14.8354911 C 4.569495,-21.174776 11.217995,-22.909508 18.698538,-22.909508 a 41.076267,41.076267 0 0 1 11.0756,1.452151 35.322606,35.322606 0 0 1 7.245047,-5.847854 c 6.153971,-3.752046 13.453965,-5.651618 21.680196,-5.651618 8.226234,0 15.384949,1.883872 21.538932,5.588822 a 35.393252,35.393252 0 0 1 10.596782,9.866782 42.520569,42.520569 0 0 1 12.307955,-1.726883 c 7.68463,0 14.52151,1.77398 20.33797,5.282692 a 34.53766,34.53766 0 0 1 13.54033,15.3692526 48.242831,48.242831 0 0 1 4.48205,20.5028204 q 0,0.525915 0,1.059678 a 31.499915,31.499915 0 0 1 10.98925,13.124335 44.325946,44.325946 0 0 1 0.18054,36.609983 31.978733,31.978733 0 0 1 -11.99399,14.081954 c -5.26699,3.375271 -11.63291,5.094305 -18.90937,5.094305 -7.06452,0 -13.34409,-1.63269 -18.56399,-4.850972 q -0.93408,-0.573011 -1.82892,-1.216667 a 34.435617,34.435617 0 0 1 -8.406765,7.582586 c -5.808611,3.728497 -12.826035,5.61237 -20.895289,5.61237 z"
     id="path176"
     inkscape:connector-curvature="0"
     style="isolation:isolate;fill:#808080;stroke-width:0.7849468" />
  <path
     class="cls-15"
     d="m 58.683682,-27.854674 q 10.847957,0 18.909361,4.858821 a 30.769915,30.769915 0 0 1 11.130545,11.703556 35.251961,35.251961 0 0 1 14.419462,-2.833657 q 10.15721,0 17.70055,4.5448405 a 29.37271,29.37271 0 0 1 11.54656,13.1557034 42.991537,42.991537 0 0 1 4.05033,18.3520671 c 0,1.303012 -0.0707,2.590333 -0.18054,3.861946 0.44742,0.235484 0.89484,0.470968 1.33441,0.73785 a 26.177976,26.177976 0 0 1 10.2985,11.774226 39.247341,39.247341 0 0 1 0.15699,32.371263 26.829482,26.829482 0 0 1 -10.09441,11.884103 q -6.6799,4.285809 -16.15421,4.285809 -9.21527,0 -15.89517,-4.097422 a 25.440126,25.440126 0 0 1 -5.49463,-4.568391 29.65529,29.65529 0 0 1 -10.149346,10.989256 q -7.488393,4.803874 -18.108723,4.803874 -10.3299,0 -17.818281,-4.591939 a 28.462171,28.462171 0 0 1 -2.629564,-1.844625 c -0.73785,0.573012 -1.491399,1.130324 -2.284191,1.640539 q -7.488381,4.803875 -18.108695,4.803875 -10.329896,0 -17.818289,-4.591939 A 28.462171,28.462171 0 0 1 7.3403575,84.282928 32.802927,32.802927 0 0 1 -7.400947,87.422715 q -9.874631,0 -17.033346,-4.387853 a 28.454322,28.454322 0 0 1 -10.989256,-12.559157 41.892611,41.892611 0 0 1 0,-34.930197 28.163892,28.163892 0 0 1 10.950008,-12.692614 29.937871,29.937871 0 0 1 11.38173,-3.97968 c 0,-0.730008 -0.05495,-1.475708 -0.05495,-2.213558 A 41.131213,41.131213 0 0 1 -9.347615,-0.78971273 28.163892,28.163892 0 0 1 1.6416425,-13.411652 q 7.213662,-4.387853 17.0333475,-4.387853 a 34.168735,34.168735 0 0 1 12.708285,2.276347 30.283248,30.283248 0 0 1 8.273327,-7.38635 q 8.084937,-4.937317 19.02708,-4.945166 m 0,-10.204314 c -9.176013,0 -17.362996,2.150762 -24.333312,6.397321 a 40.29132,40.29132 0 0 0 -6.138276,4.59194 47.489282,47.489282 0 0 0 -9.513556,-0.941937 c -8.414629,0 -15.9265715,1.978066 -22.3395897,5.879252 a 38.313254,38.313254 0 0 0 -14.9846353,17.056892 51.123586,51.123586 0 0 0 -4.4271,15.973665 37.92078,37.92078 0 0 0 -21.711628,20.2909 52.08907,52.08907 0 0 0 0.0471,43.525381 38.611534,38.611534 0 0 0 14.913988,16.978399 c 6.381618,3.924735 13.901409,5.894951 22.3631357,5.894951 A 46.311862,46.311862 0 0 0 5.118957,95.947237 q 1.4757,1.114625 3.0455945,2.080109 c 6.6014035,4.050324 14.3880755,6.099044 23.1559275,6.099044 a 44.341645,44.341645 0 0 0 20.34579,-4.584096 44.639925,44.639925 0 0 0 20.408597,4.576246 c 9.034738,0 16.9784,-2.15861 23.619044,-6.420871 a 39.655513,39.655513 0 0 0 6.59354,-5.290542 40.620997,40.620997 0 0 0 19.45099,4.584089 c 8.27334,0 15.55764,-1.985915 21.66453,-5.9028 A 36.986694,36.986694 0 0 0 157.29653,74.80862 49.451649,49.451649 0 0 0 157.08459,33.944216 36.8925,36.8925 0 0 0 146.55845,20.380312 53.156598,53.156598 0 0 0 141.62114,-0.74261593 39.514222,39.514222 0 0 0 126.08704,-18.333269 c -6.62495,-3.987529 -14.34883,-6.012693 -22.97539,-6.012693 a 49.208316,49.208316 0 0 0 -10.337735,1.059678 40.259922,40.259922 0 0 0 -9.953127,-8.461727 c -6.962478,-4.191613 -15.094527,-6.318827 -24.176354,-6.318827 z"
     id="path178"
     inkscape:connector-curvature="0"
     style="isolation:isolate;fill:#e6e6e6;stroke-width:0.7849468" />
  <path
     class="cls-16"
     d="m 58.683682,-27.854674 q 10.847957,0 18.909361,4.858821 a 30.769915,30.769915 0 0 1 11.130545,11.703556 35.251961,35.251961 0 0 1 14.419462,-2.833657 q 10.15721,0 17.70055,4.5448405 a 29.37271,29.37271 0 0 1 11.54656,13.1557034 42.991537,42.991537 0 0 1 4.05033,18.3520671 c 0,1.303012 -0.0707,2.590333 -0.18054,3.861946 0.44742,0.235484 0.89484,0.470968 1.33441,0.73785 a 26.177976,26.177976 0 0 1 10.2985,11.774226 39.247341,39.247341 0 0 1 0.15699,32.371263 26.829482,26.829482 0 0 1 -10.09441,11.884103 q -6.6799,4.285809 -16.15421,4.285809 -9.21527,0 -15.89517,-4.097422 a 25.440126,25.440126 0 0 1 -5.49463,-4.568391 29.65529,29.65529 0 0 1 -10.149346,10.989256 q -7.488393,4.803874 -18.108723,4.803874 -10.3299,0 -17.818281,-4.591939 a 28.462171,28.462171 0 0 1 -2.629564,-1.844625 c -0.73785,0.573012 -1.491399,1.130324 -2.284191,1.640539 q -7.488381,4.803875 -18.108695,4.803875 -10.329896,0 -17.818289,-4.591939 A 28.462171,28.462171 0 0 1 7.3403575,84.282928 32.802927,32.802927 0 0 1 -7.400947,87.422715 q -9.874631,0 -17.033346,-4.387853 a 28.454322,28.454322 0 0 1 -10.989256,-12.559157 41.892611,41.892611 0 0 1 0,-34.930197 28.163892,28.163892 0 0 1 10.950008,-12.692614 29.937871,29.937871 0 0 1 11.38173,-3.97968 c 0,-0.730008 -0.05495,-1.475708 -0.05495,-2.213558 A 41.131213,41.131213 0 0 1 -9.347615,-0.78971273 28.163892,28.163892 0 0 1 1.6416425,-13.411652 q 7.213662,-4.387853 17.0333475,-4.387853 a 34.168735,34.168735 0 0 1 12.708285,2.276347 30.283248,30.283248 0 0 1 8.273327,-7.38635 q 8.084937,-4.937317 19.02708,-4.945166 m 0,-3.924735 c -8.006446,0 -15.102353,1.844626 -21.067937,5.494628 a 34.160885,34.160885 0 0 0 -7.488381,6.177533 39.561319,39.561319 0 0 0 -11.444525,-1.569894 c -7.245059,0 -13.665925,1.671937 -19.07420857,4.960864 A 32.182819,32.182819 0 0 0 -12.950521,-2.3910034 45.150141,45.150141 0 0 0 -17.10289,15.662774 a 32.90497,32.90497 0 0 0 -9.419362,3.854097 32.135722,32.135722 0 0 0 -12.559149,14.325302 45.809496,45.809496 0 0 0 0,38.234824 32.426153,32.426153 0 0 0 12.488504,14.27819 c 5.376886,3.296777 11.774202,4.968713 19.0820575,4.968713 a 38.258308,38.258308 0 0 0 13.8621635,-2.417636 32.182819,32.182819 0 0 0 4.992263,3.775594 c 5.59667,3.430218 12.284417,5.1728 19.867003,5.1728 7.849453,0 14.615683,-1.821077 20.228044,-5.423983 l 0.172689,-0.109892 0.573007,0.361075 c 5.596663,3.430218 12.276552,5.1728 19.866988,5.1728 7.810221,0 14.61571,-1.821077 20.228077,-5.423983 a 33.313143,33.313143 0 0 0 8.838485,-8.241941 29.121527,29.121527 0 0 0 2.66882,1.852474 c 5.06291,3.139788 11.09915,4.709681 17.95174,4.709681 7.06452,0 13.19495,-1.648388 18.27356,-4.905917 a 30.801313,30.801313 0 0 0 11.55441,-13.571738 43.172075,43.172075 0 0 0 -0.17268,-35.63665 30.244001,30.244001 0 0 0 -11.1227,-12.998735 c 0,-0.573019 0,-1.130331 0,-1.679794 A 47.096809,47.096809 0 0 0 135.89888,1.94975 33.35239,33.35239 0 0 0 122.87661,-12.940685 c -5.62807,-3.390969 -12.26872,-5.110003 -19.72571,-5.110003 a 40.911428,40.911428 0 0 0 -12.778923,1.930969 34.325724,34.325724 0 0 0 -10.745922,-10.204309 c -5.981295,-3.650003 -13.045816,-5.455381 -20.942373,-5.455381 z"
     id="path180"
     inkscape:connector-curvature="0"
     style="isolation:isolate;fill:#ffffff;stroke-width:0.7849468" />
  <g
     style="isolation:isolate"
     class="cls-17"
     mask="url(#mask)"
     id="g186"
     transform="matrix(0.78494681,0,0,0.78494681,-84.914442,-53.52244)">
    <path
       class="cls-18"
       d="m 252.09,236.12 a 3.55,3.55 0 0 1 -3.55,-3.32 c -0.16,-2.35 -0.2,-4.8 -0.24,-7.53 a 3.57,3.57 0 0 1 2.76,-3.52 l 18.84,-4.25 c -0.38,-16.26 -0.9,-33 -1.4,-49.16 -0.23,-7.38 -0.45,-14.68 -0.66,-21.85 h -0.1 c -6,2.68 -12.27,5.44 -19.94,9 a 3.58,3.58 0 0 1 -1.49,0.33 v 0 a 3.53,3.53 0 0 1 -1.39,-0.29 3.57,3.57 0 0 1 -2,-2.11 c -0.79,-2.28 -1.6,-4.69 -2.2,-6.86 a 3.58,3.58 0 0 1 1.75,-4.09 c 11.33,-6.07 23.65,-13.87 31,-18.52 1.88,-1.19 3.4,-2.15 4.46,-2.81 0.81,-0.49 1.33,-0.81 1.81,-1 h 0.1 a 3.79,3.79 0 0 1 0.84,-0.28 4.39,4.39 0 0 1 0.87,-0.09 4,4 0 0 1 0.78,0.08 h 0.07 l 0.24,0.06 a 3.81,3.81 0 0 1 2.53,2.37 4,4 0 0 1 0.24,1.69 c 0.91,28.52 1.73,59.53 2.37,89.82 l 19.24,-3.52 a 3.57,3.57 0 0 1 2.82,0.69 3.54,3.54 0 0 1 1.37,2.53 c 0.2,2.6 0.23,5.18 0.27,7.68 a 3.57,3.57 0 0 1 -2.85,3.57 c -5,1 -10.18,2 -15.16,3 -4.72,0.92 -9.31,1.82 -13.57,2.68 -4.26,0.86 -8.7,1.81 -13.11,2.74 -4.59,1 -9.25,2 -14,2.93 a 3.55,3.55 0 0 1 -0.7,0.03 z"
       id="path182"
       inkscape:connector-curvature="0"
       style="fill:#97be11" />
    <path
       class="cls-19"
       d="m 281.59,121.5 a 2.25,2.25 0 0 1 0.51,0.06 h 0.08 a 2.08,2.08 0 0 1 1.33,1.21 2.36,2.36 0 0 1 0.15,1.1 c 0.95,29.61 1.78,61.63 2.42,92 l 21.29,-3.9 h 0.31 a 1.79,1.79 0 0 1 1.78,1.64 c 0.19,2.55 0.23,5.1 0.27,7.6 a 1.79,1.79 0 0 1 -1.42,1.77 c -9.83,2 -20,3.9 -28.72,5.68 -8.89,1.81 -17.77,3.77 -27.15,5.67 a 1.84,1.84 0 0 1 -0.36,0 1.78,1.78 0 0 1 -1.77,-1.66 c -0.16,-2.39 -0.2,-4.93 -0.23,-7.44 a 1.78,1.78 0 0 1 1.38,-1.76 l 20.25,-4.57 c -0.57,-25 -1.47,-50.92 -2.17,-75.13 -6.93,3.08 -13.74,6.08 -22.48,10.11 a 1.78,1.78 0 0 1 -2.42,-1 c -0.77,-2.21 -1.57,-4.59 -2.17,-6.75 a 1.77,1.77 0 0 1 0.87,-2 c 14.33,-7.68 30.4,-18.2 35.57,-21.38 0.76,-0.46 1.24,-0.76 1.65,-1 a 2.28,2.28 0 0 1 0.56,-0.19 2.42,2.42 0 0 1 0.47,0 m -8.54,98.94 -0.11,-0.54 v 0 l 0.12,0.55 m 8.54,-102.5 a 6,6 0 0 0 -1.13,0.11 h -0.07 -0.07 a 5.55,5.55 0 0 0 -1.16,0.39 h -0.05 -0.1 c -0.55,0.27 -1.1,0.6 -2,1.12 -1.09,0.67 -2.59,1.62 -4.5,2.83 -7.34,4.64 -19.62,12.42 -30.9,18.46 a 5.37,5.37 0 0 0 -2.62,6.13 c 0.61,2.21 1.43,4.65 2.23,7 a 5.36,5.36 0 0 0 3,3.17 5.29,5.29 0 0 0 2.09,0.43 5.38,5.38 0 0 0 2.24,-0.49 c 6.68,-3.07 12.27,-5.57 17.59,-7.93 0.19,6.31 0.38,12.73 0.59,19.2 0.48,15.7 1,31.89 1.36,47.69 L 250.68,220 a 5.37,5.37 0 0 0 -4.16,5.29 c 0,2.75 0.08,5.23 0.24,7.62 a 5.34,5.34 0 0 0 5.33,5 5.45,5.45 0 0 0 1.06,-0.11 c 4.8,-1 9.51,-2 14.06,-2.94 4.55,-0.94 8.79,-1.86 13.09,-2.74 4.3,-0.88 8.77,-1.74 13.55,-2.68 5,-1 10.12,-2 15.17,-3 a 5.34,5.34 0 0 0 4.27,-5.31 c 0,-2.56 -0.08,-5.17 -0.28,-7.82 a 5.35,5.35 0 0 0 -6.27,-4.85 l -17.2,3.15 c -0.63,-29.61 -1.43,-59.83 -2.32,-87.67 a 6,6 0 0 0 -0.36,-2.35 5.59,5.59 0 0 0 -3.79,-3.46 l -0.33,-0.07 a 5.83,5.83 0 0 0 -1.16,-0.12 z"
       id="path184"
       inkscape:connector-curvature="0"
       style="fill:#999999" />
  </g>
  <g
     style="isolation:isolate"
     class="cls-20"
     mask="url(#mask-2)"
     id="g192"
     transform="matrix(0.78494681,0,0,0.78494681,-84.914442,-53.52244)">
    <path
       class="cls-18"
       d="m 104.61,242.29 a 3,3 0 0 1 -2.9,-2.2 c -0.58,-2 -1.07,-4.25 -1.51,-6.2 a 3,3 0 0 1 1.68,-3.4 l 14.87,-6.8 c -3.14,-13.37 -6.48,-27.1 -9.71,-40.39 -1.49,-6.11 -3,-12.17 -4.39,-18.11 l -0.11,0.08 c -4.52,3.26 -9.2,6.64 -14.92,10.89 a 3,3 0 0 1 -1.8,0.6 v 0 a 3,3 0 0 1 -0.59,-0.06 3,3 0 0 1 -2,-1.4 c -1,-1.64 -2.1,-3.53 -3,-5.3 a 3,3 0 0 1 0.73,-3.69 c 8.34,-7 17.19,-15.62 22.48,-20.77 1.35,-1.31 2.44,-2.37 3.21,-3.1 0.6,-0.57 1,-0.9 1.32,-1.18 a 3.54,3.54 0 0 1 0.71,-0.43 3.5,3.5 0 0 1 1.42,-0.3 h 0.19 a 3.25,3.25 0 0 1 2.51,1.47 3.38,3.38 0 0 1 0.5,1.36 c 5.75,23.56 11.84,49.12 17.64,74 l 15.33,-6.27 a 3,3 0 0 1 4,1.95 c 0.62,2.11 1.1,4.25 1.56,6.31 a 3,3 0 0 1 -1.74,3.46 c -4,1.72 -8.05,3.44 -12,5.11 -3.77,1.6 -7.43,3.14 -10.82,4.61 -3.39,1.47 -7,3 -10.47,4.59 -3.47,1.59 -7.27,3.21 -11,4.84 a 3,3 0 0 1 -1.19,0.33 z"
       id="path188"
       inkscape:connector-curvature="0"
       style="fill:#97be11" />
    <path
       class="cls-19"
       d="m 110.15,142 v 0 a 1.77,1.77 0 0 1 1.32,0.77 2,2 0 0 1 0.32,0.89 c 6,24.38 12.23,50.77 18.05,75.82 l 17,-6.94 a 1.55,1.55 0 0 1 0.57,-0.11 1.49,1.49 0 0 1 1.44,1.08 c 0.61,2.08 1.08,4.18 1.55,6.25 a 1.51,1.51 0 0 1 -0.87,1.71 c -7.8,3.37 -15.88,6.72 -22.82,9.72 -6.94,3 -14.07,6.22 -21.51,9.44 a 1.5,1.5 0 0 1 -2,-1 c -0.55,-2 -1,-4 -1.49,-6.12 a 1.51,1.51 0 0 1 0.84,-1.7 l 16,-7.32 c -4.84,-20.62 -10.11,-42 -14.91,-61.89 -5.2,3.76 -10.32,7.44 -16.87,12.3 a 1.51,1.51 0 0 1 -0.9,0.3 h -0.29 a 1.51,1.51 0 0 1 -1,-0.7 c -1,-1.7 -2.1,-3.54 -3,-5.21 a 1.51,1.51 0 0 1 0.37,-1.85 c 10.54,-8.87 22,-20.39 25.75,-23.93 0.55,-0.52 0.9,-0.84 1.2,-1.08 a 2,2 0 0 1 0.43,-0.26 1.94,1.94 0 0 1 0.78,-0.16 h 0.07 m 9.72,83.54 -0.18,-0.43 v 0 l 0.2,0.44 M 110.15,139 h -0.07 a 4.92,4.92 0 0 0 -1.93,0.39 h -0.06 -0.06 a 4.74,4.74 0 0 0 -0.89,0.52 v 0 l -0.07,0.05 c -0.44,0.34 -0.88,0.75 -1.43,1.28 -0.78,0.74 -1.88,1.81 -3.23,3.12 -5.27,5.13 -14.1,13.71 -22.39,20.69 a 4.5,4.5 0 0 0 -1.1,5.54 c 0.94,1.81 2.08,3.72 3.07,5.38 a 4.52,4.52 0 0 0 6.58,1.3 c 5,-3.71 9.2,-6.76 13.19,-9.64 1.27,5.24 2.56,10.56 3.86,15.93 3.13,12.89 6.37,26.19 9.42,39.18 l -13.74,6.29 a 4.54,4.54 0 0 0 -2.53,5.11 c 0.44,2 0.95,4.2 1.53,6.27 a 4.52,4.52 0 0 0 2.41,2.85 4.57,4.57 0 0 0 1.94,0.44 4.5,4.5 0 0 0 1.8,-0.37 c 3.77,-1.63 7.47,-3.27 11,-4.85 3.53,-1.58 7,-3.09 10.46,-4.59 3.46,-1.5 7,-3 10.81,-4.6 3.81,-1.6 8,-3.39 12,-5.12 a 4.52,4.52 0 0 0 2.61,-5.15 c -0.48,-2.11 -1,-4.27 -1.6,-6.43 a 4.52,4.52 0 0 0 -6,-2.92 l -13.73,5.7 c -5.67,-24.35 -11.61,-49.26 -17.23,-72.27 a 5,5 0 0 0 -0.71,-1.89 4.75,4.75 0 0 0 -3.74,-2.2 h -0.18 z"
       id="path190"
       inkscape:connector-curvature="0"
       style="fill:#999999" />
  </g>
  <g
     style="isolation:isolate"
     class="cls-21"
     mask="url(#mask-3)"
     id="g198"
     transform="matrix(0.78494681,0,0,0.78494681,-84.914442,-53.52244)">
    <path
       class="cls-22"
       d="m 196.28,292.45 a 5.1,5.1 0 0 1 -4,-2.43 5.73,5.73 0 0 1 -0.8,-2.25 c -5.06,-21.08 -10.67,-41 -16.1,-60.35 -6,-21.48 -12.28,-43.67 -17.84,-67.67 L 129.59,172 a 4.54,4.54 0 0 1 -1.84,0.38 4.61,4.61 0 0 1 -2,-0.48 4.77,4.77 0 0 1 -2.46,-3 c -1.11,-3.88 -2,-7.81 -2.83,-11.61 v -0.13 a 4.86,4.86 0 0 1 2.65,-5.46 c 7.12,-3.29 14.38,-6.57 21.4,-9.75 6.76,-3.06 13.14,-5.94 19.13,-8.71 5.99,-2.77 12.12,-5.66 18.46,-8.66 6.34,-3 13,-6.14 19.76,-9.26 a 4.54,4.54 0 0 1 1.92,-0.42 4.6,4.6 0 0 1 2,0.47 4.77,4.77 0 0 1 2.49,3 c 1,3.69 1.9,7.65 2.75,11.49 a 4.82,4.82 0 0 1 -2.55,5.41 l -27,13.18 c 5.82,25.17 12,51 18,76 2.78,11.65 5.54,23.18 8.22,34.48 l 1.14,-0.87 c 8,-6.12 16.21,-12.44 26.3,-20.41 a 4.61,4.61 0 0 1 6.88,1.34 19.51,19.51 0 0 1 1.74,3.61 21.57,21.57 0 0 0 1.12,2.55 4.89,4.89 0 0 1 -1.09,5.84 C 228.14,265 209.34,281.9 202.26,289 c -1,1 -1.67,1.67 -2.29,2.17 l -1.36,-1.47 1.26,1.55 a 4.9,4.9 0 0 1 -1,0.65 5.34,5.34 0 0 1 -2.3,0.52 h -0.25 z"
       id="path194"
       style="fill:url(#linear-gradient-11)"
       inkscape:connector-curvature="0" />
    <path
       class="cls-19"
       d="m 203.72,116.91 a 2.57,2.57 0 0 1 1.13,0.26 2.77,2.77 0 0 1 1.44,1.76 c 1,3.63 1.88,7.53 2.73,11.38 a 2.85,2.85 0 0 1 -1.48,3.18 l -28.4,13.88 c 8.85,38.35 18.48,78 27.27,115.1 9.23,-7.08 18.31,-14 29.91,-23.18 a 2.63,2.63 0 0 1 1.63,-0.57 2.58,2.58 0 0 1 0.5,0 2.69,2.69 0 0 1 1.79,1.29 c 1.84,3.16 1.23,2.94 2.81,6.06 a 2.9,2.9 0 0 1 -0.64,3.45 c -18.67,16.68 -35,31.38 -41.56,38 -1,1 -1.59,1.59 -2.13,2 a 3.18,3.18 0 0 1 -0.76,0.49 3.29,3.29 0 0 1 -1.42,0.32 h -0.16 A 3.11,3.11 0 0 1 194,289 3.91,3.91 0 0 1 193.42,287.35 C 182.54,242.02 169.57,203.5 158.92,156.9 l -30.15,13.2 a 2.58,2.58 0 0 1 -2.18,-0.05 2.78,2.78 0 0 1 -1.42,-1.73 c -1.1,-3.86 -2,-7.78 -2.83,-11.63 a 2.85,2.85 0 0 1 1.53,-3.21 c 13.86,-6.4 28.22,-12.77 40.54,-18.46 12.53,-5.79 25,-11.81 38.22,-17.91 a 2.57,2.57 0 0 1 1.08,-0.24 M 177,146.3 l -0.36,-0.81 0.33,0.79 v 0 m 26.67,-33.39 a 6.52,6.52 0 0 0 -2.77,0.61 c -6.75,3.12 -13.37,6.24 -19.76,9.26 -6.39,3.02 -12.32,5.82 -18.45,8.65 -6.13,2.83 -12.36,5.65 -19.12,8.7 -7,3.18 -14.29,6.46 -21.42,9.75 a 6.87,6.87 0 0 0 -3.76,7.71 v 0.13 c 0.85,3.83 1.74,7.79 2.86,11.72 a 6.78,6.78 0 0 0 3.49,4.22 6.62,6.62 0 0 0 2.92,0.68 6.54,6.54 0 0 0 2.64,-0.55 L 156,162.5 c 5.43,23.14 11.47,44.61 17.32,65.42 5.42,19.26 11,39.18 16.06,60.19 a 7.81,7.81 0 0 0 1.08,2.94 7.08,7.08 0 0 0 5.71,3.36 h 0.28 a 7.23,7.23 0 0 0 3,-0.66 l 0.14,-0.06 a 6.91,6.91 0 0 0 1.42,-0.9 l 0.1,-0.08 c 0.7,-0.57 1.39,-1.26 2.43,-2.29 7.06,-7.11 25.84,-24 41.41,-37.89 a 6.89,6.89 0 0 0 1.55,-8.22 19.45,19.45 0 0 1 -1,-2.36 21.66,21.66 0 0 0 -1.89,-3.92 6.7,6.7 0 0 0 -4.45,-3.2 6.6,6.6 0 0 0 -5.38,1.29 c -9.53,7.53 -17.41,13.59 -25,19.39 -2.47,-10.4 -5,-21.09 -7.51,-31.48 -5.86,-24.5 -11.9,-49.81 -17.61,-74.49 L 209.3,137.1 a 6.81,6.81 0 0 0 3.62,-7.65 c -0.85,-3.85 -1.74,-7.84 -2.78,-11.58 a 6.78,6.78 0 0 0 -3.55,-4.28 6.6,6.6 0 0 0 -2.88,-0.67 z"
       id="path196"
       inkscape:connector-curvature="0"
       style="fill:#999999" />
  </g>
  <g
     style="isolation:isolate"
     class="cls-23"
     mask="url(#mask-4)"
     id="g204"
     transform="matrix(0.78494681,0,0,0.78494681,-84.914442,-53.52244)">
    <g
       class="cls-24"
       id="g202"
       style="mix-blend-mode:hard-light">
      <path
         class="cls-16"
         d="m 263.31,178.76 q -11.74,0 -20.25,-5.22 a 33.84,33.84 0 0 1 -13.06,-15 49.79,49.79 0 0 1 0,-41.54 33.48,33.48 0 0 1 13.09,-15 q 8.58,-5.22 20.25,-5.22 a 38.23,38.23 0 0 1 20.08,5.22 33.35,33.35 0 0 1 13.12,15 50,50 0 0 1 0.2,41.24 34.18,34.18 0 0 1 -12.86,15.14 q -8.5,5.38 -20.57,5.38 z m 0,-9.76 a 13.72,13.72 0 0 0 12.93,-7.75 q 4.15,-7.75 4.15,-24.52 0,-15.08 -4.25,-22.62 a 14.71,14.71 0 0 0 -25.79,0.19 q -4.19,7.72 -4.19,24.49 0,15.08 4.29,22.65 a 13.89,13.89 0 0 0 12.86,7.56 z"
         id="path200"
         inkscape:connector-curvature="0"
         style="fill:#ffffff" />
    </g>
  </g>
  <g
     style="isolation:isolate"
     class="cls-25"
     mask="url(#mask-5)"
     id="g210"
     transform="matrix(0.78494681,0,0,0.78494681,-84.914442,-53.52244)">
    <g
       class="cls-24"
       id="g208"
       style="mix-blend-mode:hard-light">
      <path
         class="cls-16"
         d="m 200,187.84 q -13.16,0 -22.7,-5.85 a 37.92,37.92 0 0 1 -14.6,-16.79 55.83,55.83 0 0 1 0,-46.55 37.54,37.54 0 0 1 14.68,-16.82 Q 186.95,96 200,96 q 12.94,0 22.55,5.79 a 37.4,37.4 0 0 1 14.71,16.76 56,56 0 0 1 0.22,46.23 38.31,38.31 0 0 1 -14.42,17 q -9.49,6.06 -23.06,6.06 z m 0,-10.94 a 15.39,15.39 0 0 0 14.49,-8.69 q 4.66,-8.69 4.66,-27.49 0,-16.91 -4.77,-25.36 a 16.49,16.49 0 0 0 -28.91,0.21 q -4.7,8.66 -4.69,27.46 0,16.91 4.81,25.39 4.81,8.48 14.41,8.49 z"
         id="path206"
         inkscape:connector-curvature="0"
         style="fill:#ffffff" />
    </g>
  </g>
  <g
     style="isolation:isolate"
     class="cls-26"
     mask="url(#mask-6)"
     id="g216"
     transform="matrix(0.78494681,0,0,0.78494681,-84.914442,-53.52244)">
    <g
       class="cls-24"
       id="g214"
       style="mix-blend-mode:hard-light">
      <path
         class="cls-16"
         d="m 239.58,142.06 q -13.16,0 -22.7,-5.85 a 37.92,37.92 0 0 1 -14.64,-16.79 55.83,55.83 0 0 1 0,-46.55 A 37.55,37.55 0 0 1 216.88,56 q 9.61,-5.85 22.7,-5.85 13.09,0 22.55,5.85 a 37.42,37.42 0 0 1 14.71,16.76 56,56 0 0 1 0.22,46.23 38.33,38.33 0 0 1 -14.42,17 q -9.52,6.06 -23.06,6.07 z m 0,-10.94 a 15.38,15.38 0 0 0 14.49,-8.69 q 4.66,-8.69 4.66,-27.49 0,-16.91 -4.77,-25.36 a 16.49,16.49 0 0 0 -28.91,0.21 q -4.7,8.66 -4.7,27.46 0,16.91 4.81,25.39 4.81,8.48 14.42,8.48 z"
         id="path212"
         inkscape:connector-curvature="0"
         style="fill:#ffffff" />
    </g>
  </g>
  <g
     style="isolation:isolate"
     class="cls-27"
     mask="url(#mask-7)"
     id="g222"
     transform="matrix(0.78494681,0,0,0.78494681,-84.914442,-53.52244)">
    <g
       class="cls-24"
       id="g220"
       style="mix-blend-mode:hard-light">
      <path
         class="cls-16"
         d="m 182.94,130.82 q -14.06,0 -24.24,-6.25 a 40.51,40.51 0 0 1 -15.63,-17.93 59.62,59.62 0 0 1 0,-49.72 A 40.08,40.08 0 0 1 158.7,39 q 10.3,-6.29 24.24,-6.3 13.82,0 24.09,6.19 a 39.94,39.94 0 0 1 15.71,17.9 59.83,59.83 0 0 1 0.24,49.37 40.91,40.91 0 0 1 -15.4,18.12 q -10.19,6.54 -24.64,6.54 z m 0,-11.68 q 10.5,0 15.48,-9.28 4.98,-9.28 5,-29.36 0,-18.06 -5.09,-27.08 -5.09,-9.02 -15.36,-9 -10.5,0 -15.52,9.25 -5.02,9.25 -5,29.33 0,18.06 5.13,27.12 5.13,9.06 15.36,9.02 z"
         id="path218"
         inkscape:connector-curvature="0"
         style="fill:#ffffff" />
    </g>
  </g>
  <g
     style="isolation:isolate"
     class="cls-28"
     mask="url(#mask-8)"
     id="g228"
     transform="matrix(0.78494681,0,0,0.78494681,-84.914442,-53.52244)">
    <g
       class="cls-24"
       id="g226"
       style="mix-blend-mode:hard-light">
      <path
         class="cls-16"
         d="m 148,187.84 q -13.16,0 -22.7,-5.85 a 37.92,37.92 0 0 1 -14.64,-16.79 55.83,55.83 0 0 1 0,-46.55 37.54,37.54 0 0 1 14.68,-16.82 Q 134.92,96 148,96 q 12.94,0 22.55,5.79 a 37.4,37.4 0 0 1 14.71,16.76 56,56 0 0 1 0.22,46.23 38.31,38.31 0 0 1 -14.42,17 q -9.52,6.06 -23.06,6.06 z m 0,-10.94 a 15.38,15.38 0 0 0 14.49,-8.69 q 4.66,-8.69 4.66,-27.49 0,-16.91 -4.77,-25.36 a 16.49,16.49 0 0 0 -28.91,0.21 q -4.69,8.66 -4.69,27.46 0,16.91 4.81,25.39 4.81,8.48 14.41,8.49 z"
         id="path224"
         inkscape:connector-curvature="0"
         style="fill:#ffffff" />
    </g>
  </g>
  <g
     style="isolation:isolate"
     class="cls-29"
     mask="url(#mask-9)"
     id="g234"
     transform="matrix(0.78494681,0,0,0.78494681,-84.914442,-53.52244)">
    <g
       class="cls-24"
       id="g232"
       style="mix-blend-mode:hard-light">
      <path
         class="cls-16"
         d="m 98.68,179.52 q -12.58,0 -21.7,-5.59 a 36.25,36.25 0 0 1 -14,-16 53.37,53.37 0 0 1 0,-44.5 A 35.88,35.88 0 0 1 77,97.3 q 9.19,-5.59 21.7,-5.59 12.51,0 21.56,5.54 a 35.76,35.76 0 0 1 14.06,16 53.55,53.55 0 0 1 0.21,44.19 36.61,36.61 0 0 1 -13.78,16.22 q -9.14,5.86 -22.07,5.86 z m 0,-10.45 a 14.7,14.7 0 0 0 13.85,-8.31 q 4.45,-8.31 4.45,-26.28 0,-16.16 -4.56,-24.24 a 14.82,14.82 0 0 0 -13.75,-8.08 14.78,14.78 0 0 0 -13.89,8.28 q -4.49,8.28 -4.49,26.25 0,16.16 4.59,24.27 4.59,8.11 13.8,8.1 z"
         id="path230"
         inkscape:connector-curvature="0"
         style="fill:#ffffff" />
    </g>
  </g>
  <g
     style="isolation:isolate"
     class="cls-30"
     mask="url(#mask-10)"
     id="g240"
     transform="matrix(0.78494681,0,0,0.78494681,-84.914442,-53.52244)">
    <g
       class="cls-24"
       id="g238"
       style="mix-blend-mode:hard-light">
      <path
         class="cls-16"
         d="m 132,133.31 q -12.58,0 -21.7,-5.59 a 36.24,36.24 0 0 1 -14,-16 53.35,53.35 0 0 1 0,-44.5 35.88,35.88 0 0 1 14,-16.08 q 9.19,-5.59 21.7,-5.59 12.51,0 21.53,5.45 a 35.77,35.77 0 0 1 14.06,16 53.56,53.56 0 0 1 0.21,44.19 36.61,36.61 0 0 1 -13.8,16.27 q -9.09,5.85 -22,5.85 z m 0,-10.46 a 14.7,14.7 0 0 0 13.85,-8.31 q 4.45,-8.31 4.45,-26.27 0,-16.16 -4.56,-24.24 a 15.76,15.76 0 0 0 -27.63,0.2 q -4.49,8.28 -4.49,26.25 0,16.16 4.59,24.27 a 14.88,14.88 0 0 0 13.79,8.11 z"
         id="path236"
         inkscape:connector-curvature="0"
         style="fill:#ffffff" />
    </g>
  </g>
</svg>
